<svg width="15" height="20" viewBox="0 0 15 17" fill="none" xmlns="http://www.w3.org/2000/svg">
<path d="M6.09076 1.53713C6.82256 0.613071 8.2243 0.611345 8.95808 1.53392L14.0657 7.95526C14.8337 8.92048 14.1539 10.3466 12.9208 10.3587L11.5331 10.3725L11.5318 15.0372C11.5318 15.2776 11.4844 15.5156 11.3923 15.7377C11.3002 15.9598 11.1652 16.1616 10.9951 16.3315C10.825 16.5014 10.6231 16.6361 10.4009 16.728C10.1788 16.8198 9.94065 16.867 9.70023 16.8668L5.34195 16.8628C4.85699 16.8623 4.39208 16.6692 4.04935 16.3261C3.70662 15.983 3.51408 15.5179 3.51404 15.033L3.51355 10.3735L2.15815 10.3727C0.91958 10.372 0.228693 8.94266 0.996975 7.97177L6.09076 1.53713Z" fill="currentColor"/>

</svg>
